<svg width="256" height="256" version="1.1" xmlns="http://www.w3.org/2000/svg" desc="Created with imagetracer.js version 1.2.6" ><path fill="rgb(39,174,96)" stroke="rgb(39,174,96)" stroke-width="1" opacity="1" d="M 0 0 L 255.5 0 L 256 0.5 L 256 17 L 241 17 L 241 31 L 255.5 31 L 256 31.5 L 256 256 L 172.5 256 L 172 254.5 L 166 243.5 L 166 240.5 L 162 233.5 L 162 229.5 L 158 219.5 L 158 214.5 L 156 208.5 L 156 176.5 L 158 170.5 L 158 165.5 L 162 154.5 L 162 149.5 L 164 142.5 L 164 132.5 L 160 116.5 L 150 100 L 148 100 L 148 98 L 146 98 L 146 96 Q 143.3 97.1 144 94.5 L 143 93.5 L 143 81 L 129.5 81 L 129 82.5 L 126.5 84 L 120.5 80 L 98.5 72 L 92.5 72 L 87.5 70 L 78.5 70 L 77.5 69 L 52.5 68 L 44.5 70 L 37.5 70 L 34.5 72 L 21.5 74 L 8.5 80 L 5.5 80 L 3.5 82 L 0 82 L 0 0 Z M 33 49 L 33 63 L 47 63 L 47 49 L 33 49 Z M 193 193 L 193 223 L 223 223 L 223 193 L 193 193 Z " /><path fill="rgb(39,174,96)" stroke="rgb(39,174,96)" stroke-width="1" opacity="1" d="M 49.5 156 L 64.5 156 L 67 158.5 L 70 171.5 L 68 179.5 L 68 206.5 L 74 234.5 L 82 252.5 L 82 256 L 0 256 L 0 172 L 23.5 162 L 49.5 156 Z " /><path fill="rgb(189,157,76)" stroke="rgb(189,157,76)" stroke-width="1" opacity="1" d="M 51.5 76 L 75.5 76 L 97.5 80 L 114.5 86 L 138 100 L 138 102 L 140 102 L 140 104 L 142 104 L 142 106 Q 144.7 104.9 144 107.5 L 150 115.5 L 154 124.5 L 155 147.5 L 148 177.5 L 148 208.5 L 150 213.5 L 150 219.5 Q 152.7 221.8 152 227.5 L 154 230.5 L 156 239.5 L 164 255.5 L 161 256 L 161 252.5 L 153 236.5 L 153 232.5 L 149 222.5 L 149 216.5 L 147 213.5 L 146 184.5 L 147 183.5 L 147 171.5 L 149 168.5 L 149 162.5 L 153 151.5 L 153 127.5 L 149 119.5 L 149 116.5 L 145 110.5 L 133.5 99 L 117.5 89 L 114.5 89 L 103.5 83 L 98.5 83 L 95.5 81 L 89.5 81 L 85.5 79 L 76.5 79 L 75.5 78 L 52.5 78 L 51.5 79 L 40.5 79 L 37.5 81 L 31.5 81 Q 29.8 83.8 24.5 83 L 0 93 Q -1.1 90.3 1.5 91 L 28.5 80 L 33.5 80 L 37.5 78 L 44.5 78 L 51.5 76 Z " /><path fill="rgb(189,157,76)" stroke="rgb(189,157,76)" stroke-width="1" opacity="1" d="M 21 117 L 35 117 L 35 131 L 21 131 L 21 117 Z " /><path fill="rgb(189,157,76)" stroke="rgb(189,157,76)" stroke-width="1" opacity="1" d="M 44.5 147 L 67.5 147 L 75 153.5 L 79 162.5 L 79 179.5 Q 75 187.5 77 201.5 L 79 206.5 L 79 216.5 Q 82.2 218.8 81 225.5 L 83 227.5 L 83 231.5 L 85 234.5 L 87 243.5 L 91 249.5 L 91 252.5 L 93 256 Q 90.3 257.1 91 254.5 L 84 239.5 L 84 236.5 L 82 234.5 L 82 230.5 L 78 219.5 L 78 213.5 L 76 206.5 L 76 179.5 Q 79 175.5 78 167.5 L 76 158.5 L 69.5 150 L 65.5 148 L 49.5 148 L 44.5 150 L 37.5 150 Q 35.2 152.7 29.5 152 L 26.5 154 L 22.5 154 L 20.5 156 L 17.5 156 L 5.5 162 L 2.5 162 L 0.5 164 L 0 161 L 3.5 161 L 5.5 159 L 13.5 157 L 20.5 153 L 24.5 153 L 34.5 149 L 41.5 149 L 44.5 147 Z " /><path fill="rgb(189,157,76)" stroke="rgb(189,157,76)" stroke-width="1" opacity="1" d="M 97 217 L 111 217 L 111 231 L 97 231 L 97 217 Z " /><path fill="rgb(217,162,77)" stroke="rgb(217,162,77)" stroke-width="1" opacity="1" d="M 52.5 78 L 75.5 78 L 76.5 79 L 85.5 79 L 89.5 81 L 95.5 81 L 98.5 83 L 103.5 83 L 105.5 85 L 112.5 87 L 114.5 89 L 117.5 89 L 122.5 93 L 124.5 93 Q 136.6 99.9 145 110.5 L 149 116.5 L 149 119.5 L 153 127.5 L 153 151.5 L 149 162.5 L 149 168.5 L 147 171.5 L 146 199.5 L 147 200.5 L 147 213.5 Q 150.2 215.8 149 222.5 L 151 225.5 L 153 236.5 L 161 252.5 L 161 256 L 93.5 256 L 93 254.5 L 87 243.5 L 87 240.5 L 83 231.5 L 83 227.5 L 81 225.5 Q 82.2 218.8 79 216.5 L 79 206.5 L 77 201.5 L 77 185.5 L 79 179.5 L 79 162.5 Q 76.4 161.1 77 156.5 L 70.5 149 L 67.5 147 L 44.5 147 L 41.5 149 L 34.5 149 L 31.5 151 L 20.5 153 L 13.5 157 L 5.5 159 L 3.5 161 L 0 161 L 0 93.5 L 1.5 93 L 12.5 87 L 15.5 87 L 24.5 83 Q 29.8 83.8 31.5 81 L 37.5 81 L 40.5 79 L 51.5 79 L 52.5 78 Z M 21 117 L 21 131 L 35 131 L 35 117 L 21 117 Z M 97 217 L 97 231 L 111 231 L 111 217 L 97 217 Z " /><path fill="rgb(48,158,86)" stroke="rgb(48,158,86)" stroke-width="1" opacity="1" d="M 241 17 L 256 17 L 256 31 L 241 31 L 241 17 Z " /><path fill="rgb(48,158,86)" stroke="rgb(48,158,86)" stroke-width="1" opacity="1" d="M 33 49 L 47 49 L 47 63 L 33 63 L 33 49 Z " /><path fill="rgb(48,158,86)" stroke="rgb(48,158,86)" stroke-width="1" opacity="1" d="M 45.5 75 L 81.5 75 Q 84.7 78.8 93.5 77 L 95.5 79 L 100.5 79 L 120.5 87 L 139 99 L 139 101 L 141 101 L 141 103 L 143 103 L 143 105 Q 145.7 103.9 145 106.5 L 149 110.5 L 155 122.5 Q 154.2 128.8 157 131.5 L 157 148.5 L 155 150.5 L 155 157.5 L 153 159.5 Q 154 165.5 151 167.5 L 151 176.5 L 149 180.5 L 149 205.5 L 151 209.5 L 151 217.5 L 153 220.5 L 153 225.5 Q 155.8 227.2 155 232.5 L 157 234.5 L 157 237.5 L 165 255.5 L 162 253.5 L 156 239.5 L 150 219.5 Q 150.9 212.1 148 208.5 L 148 177.5 L 150 171.5 L 150 165.5 L 154 154.5 L 155 131.5 L 152 119.5 L 144 106 L 142 106 L 142 104 L 140 104 L 140 102 L 138 102 Q 139.1 99.3 136.5 100 L 122.5 90 L 97.5 80 L 75.5 76 L 51.5 76 L 44.5 78 L 37.5 78 L 33.5 80 L 28.5 80 L 0 91 Q -1.3 88 2.5 89 L 4.5 87 L 7.5 87 L 19.5 81 Q 24.8 81.8 26.5 79 L 31.5 79 L 34.5 77 L 41.5 77 L 45.5 75 Z " /><path fill="rgb(48,158,86)" stroke="rgb(48,158,86)" stroke-width="1" opacity="1" d="M 129 81 L 143 81 L 143 92.5 L 137.5 88 L 131.5 84 L 128 83.5 L 129 81 Z " /><path fill="rgb(48,158,86)" stroke="rgb(48,158,86)" stroke-width="1" opacity="1" d="M 49.5 148 L 65.5 148 L 74 154.5 Q 78.3 162.2 78 174.5 L 76 179.5 L 76 206.5 L 82 234.5 L 84 236.5 L 84 239.5 L 91 256 Q 88 257.3 89 253.5 L 83 241.5 L 83 238.5 L 79 229.5 L 79 224.5 L 77 222.5 L 77 214.5 L 75 212.5 L 75 175.5 Q 77.7 173.8 76 167.5 Q 73.3 165.8 75 159.5 L 68.5 151 L 64.5 149 L 53.5 149 L 48.5 151 L 40.5 151 Q 37.8 153.8 31.5 153 L 29.5 155 L 24.5 155 L 0.5 165 L 2.5 162 L 5.5 162 L 7.5 160 L 20.5 156 L 22.5 154 L 26.5 154 L 29.5 152 Q 35.2 152.7 37.5 150 L 44.5 150 L 49.5 148 Z " /><path fill="rgb(48,158,86)" stroke="rgb(48,158,86)" stroke-width="1" opacity="1" d="M 193 193 L 223 193 L 223 223 L 193 223 L 193 193 Z " /><path fill="rgb(33,152,83)" stroke="rgb(33,152,83)" stroke-width="1" opacity="1" d="M 52.5 68 L 87.5 70 L 92.5 72 L 98.5 72 L 105.5 74 L 126.5 84 L 131.5 84 L 144 94.5 L 148 99.5 L 154 105.5 L 160 116.5 L 164 133.5 L 164 141.5 L 162 148.5 L 162 154.5 L 158 164.5 L 158 170.5 L 156 176.5 L 156 209.5 L 162 233.5 L 172 255.5 L 165 256 L 157 237.5 L 157 234.5 L 155 232.5 Q 155.8 227.2 153 225.5 L 153 220.5 L 151 217.5 Q 152.3 209.2 149 205.5 L 149 180.5 L 151 176.5 L 151 167.5 Q 154 165.5 153 159.5 L 155 157.5 L 155 150.5 L 157 148.5 L 157 131.5 Q 154.2 128.8 155 122.5 L 145 105 L 143 105 L 143 103 L 141 103 L 141 101 L 139 101 Q 140.1 98.3 137.5 99 L 120.5 87 L 100.5 79 L 95.5 79 L 93.5 77 Q 84.7 78.8 81.5 75 L 45.5 75 L 41.5 77 L 34.5 77 L 31.5 79 L 26.5 79 Q 24.8 81.8 19.5 81 L 17.5 83 L 14.5 83 L 12.5 85 L 9.5 85 L 7.5 87 L 0 89 L 0 83.5 L 1.5 83 L 22.5 74 L 52.5 68 Z " /><path fill="rgb(33,152,83)" stroke="rgb(33,152,83)" stroke-width="1" opacity="1" d="M 53.5 149 L 64.5 149 L 73 155.5 L 75 159.5 L 76 174.5 L 75 175.5 L 75 212.5 L 77 214.5 L 77 222.5 Q 80.3 223.8 79 229.5 L 89 256 L 83.5 256 L 83 254.5 L 76 239.5 L 70 218.5 L 70 212.5 L 68 205.5 L 68 179.5 L 70 170.5 L 68 159.5 L 64.5 156 L 48.5 156 L 44.5 158 L 38.5 158 L 30.5 160 L 17.5 164 L 2.5 172 L 0 172 L 0 165 L 2.5 165 L 8.5 161 L 11.5 161 L 13.5 159 L 16.5 159 L 24.5 155 L 29.5 155 L 31.5 153 Q 37.8 153.8 40.5 151 L 48.5 151 L 53.5 149 Z " /></svg>