<svg width="256" height="256" version="1.1" xmlns="http://www.w3.org/2000/svg" desc="Created with imagetracer.js version 1.2.6" ><path fill="rgb(0,0,0)" stroke="rgb(0,0,0)" stroke-width="1" opacity="0" d="M 0 0 L 256 0 L 256 94 L 0 94 L 0 0 Z " /><path fill="rgb(0,0,0)" stroke="rgb(0,0,0)" stroke-width="1" opacity="0" d="M 0 162 L 256 162 L 256 256 L 0 256 L 0 162 Z " /><path fill="rgb(141,169,185)" stroke="rgb(141,169,185)" stroke-width="1" opacity="1" d="M 0.5 102 L 256 102.5 L 0.5 103 L 0.5 102 Z " /><path fill="rgb(141,169,185)" stroke="rgb(141,169,185)" stroke-width="1" opacity="1" d="M 0.5 153 L 256 153.5 L 0.5 154 L 0.5 153 Z " /><path fill="rgb(210,238,254)" stroke="rgb(210,238,254)" stroke-width="1" opacity="1" d="M 0 105 L 255.5 105 L 256 105.5 L 256 151 L 0.5 151 L 0 150.5 L 0 105 Z " /><path fill="rgb(175,200,215)" stroke="rgb(175,200,215)" stroke-width="1" opacity="1" d="M 0 103 L 255.5 103 L 256 105 L 0.5 105 L 0 103 Z " /><path fill="rgb(175,200,215)" stroke="rgb(175,200,215)" stroke-width="1" opacity="1" d="M 0 151 L 255.5 151 L 256 153 L 0.5 153 L 0 151 Z " /><path fill="rgb(129,158,175)" stroke="rgb(129,158,175)" stroke-width="1" opacity="0.37254901960784315" d="M 0 94 L 255.5 94 L 256 97 L 0.5 97 L 0 94 Z " /><path fill="rgb(129,158,175)" stroke="rgb(129,158,175)" stroke-width="1" opacity="0.37254901960784315" d="M 0 159 L 255.5 159 L 256 162 L 0.5 162 L 0 159 Z " /><path fill="rgb(130,158,175)" stroke="rgb(130,158,175)" stroke-width="1" opacity="0.9725490196078431" d="M 0.5 97 L 256 97.5 L 0.5 98 L 0.5 97 Z " /><path fill="rgb(130,158,175)" stroke="rgb(130,158,175)" stroke-width="1" opacity="0.9725490196078431" d="M 0.5 158 L 256 158.5 L 0.5 159 L 0.5 158 Z " /><path fill="rgb(130,158,175)" stroke="rgb(130,158,175)" stroke-width="1" opacity="1" d="M 0 98 L 255.5 98 L 256 102 L 0.5 102 L 0 98 Z " /><path fill="rgb(130,158,175)" stroke="rgb(130,158,175)" stroke-width="1" opacity="1" d="M 0 154 L 255.5 154 L 256 158 L 0.5 158 L 0 154 Z " /></svg>