<svg width="256" height="256" version="1.1" xmlns="http://www.w3.org/2000/svg" desc="Created with imagetracer.js version 1.2.6" ><path fill="rgb(140,167,184)" stroke="rgb(140,167,184)" stroke-width="1" opacity="0.8980392156862745" d="M 0 0 L 255.5 0 L 256 0.5 L 256 8 L 0.5 8 L 0 7.5 L 0 0 Z " /><path fill="rgb(140,167,184)" stroke="rgb(140,167,184)" stroke-width="1" opacity="0.8980392156862745" d="M 0 76 L 255.5 76 L 256 76.5 L 256 86 L 0.5 86 L 0 85.5 L 0 76 Z " /><path fill="rgb(203,236,254)" stroke="rgb(203,236,254)" stroke-width="1" opacity="1" d="M 0 9 L 255.5 9 L 256 9.5 L 256 25 L 0.5 25 L 0 24.5 L 0 9 Z " /><path fill="rgb(203,236,254)" stroke="rgb(203,236,254)" stroke-width="1" opacity="1" d="M 0 59 L 255.5 59 L 256 59.5 L 256 75 L 0.5 75 L 0 74.5 L 0 59 Z " /><path fill="rgb(189,231,255)" stroke="rgb(189,231,255)" stroke-width="1" opacity="1" d="M 0.5 8 L 256 8.5 L 0.5 9 L 0.5 8 Z " /><path fill="rgb(189,231,255)" stroke="rgb(189,231,255)" stroke-width="1" opacity="1" d="M 0 25 L 255.5 25 L 256 25.5 L 256 59 L 0.5 59 L 0 58.5 L 0 25 Z " /><path fill="rgb(189,231,255)" stroke="rgb(189,231,255)" stroke-width="1" opacity="1" d="M 0.5 75 L 256 75.5 L 0.5 76 L 0.5 75 Z " /><path fill="rgb(0,0,0)" stroke="rgb(0,0,0)" stroke-width="1" opacity="0" d="M 0 86 L 256 86 L 256 256 L 0 256 L 0 86 Z " /></svg>